<?xml version="1.0" encoding="UTF-8"?>
<svg version="1.1" xmlns="http://www.w3.org/2000/svg" width="541" height="461">
<path d="M0 0 C1.21807343 -0.00311188 2.43614685 -0.00622375 3.69113159 -0.00942993 C5.00775787 -0.00744598 6.32438416 -0.00546204 7.6809082 -0.00341797 C9.08163479 -0.00443469 10.48236117 -0.00577478 11.88308716 -0.00741577 C15.63897369 -0.01011422 19.39481887 -0.00565227 23.15069962 0.00082397 C25.47972996 0.00439153 27.80875413 0.00601251 30.13778687 0.00708008 C58.03198298 0.02295786 85.90854184 0.41569203 113.79418945 1.12939453 C113.22582249 6.74407616 112.16971797 11.80854261 110.45825195 17.17626953 C110.22330017 17.93275284 109.98834839 18.68923615 109.74627686 19.46864319 C108.9769692 21.94093995 108.1982944 24.41016946 107.41918945 26.87939453 C106.59782755 29.50447757 105.77844528 32.13017297 104.95925903 34.75593567 C104.39891998 36.55158481 103.83777625 38.34698304 103.27584839 40.14213562 C101.44159765 46.01206337 99.65484223 51.89437534 97.90356445 57.78955078 C84.48187575 102.88913766 66.68726013 146.96813465 35.79418945 183.12939453 C34.88183028 184.22630213 33.97042063 185.32399999 33.05981445 186.42236328 C22.70341563 198.82329102 11.58694189 210.22372241 -1.20581055 220.12939453 C-2.4707853 221.14551067 -3.73505867 222.16250034 -4.9987793 223.18017578 C-44.64397521 254.72762955 -93.67938878 270.38165872 -143.98706055 271.32861328 C-144.75207382 271.34443954 -145.5170871 271.36026581 -146.30528259 271.37657166 C-150.09096341 271.45295615 -153.87470881 271.50865616 -157.66113281 271.5246582 C-170.55207092 271.66858713 -182.34551565 274.14858381 -194.01831055 279.87939453 C-194.72914795 280.22156006 -195.43998535 280.56372559 -196.17236328 280.91625977 C-202.19145365 283.91791848 -207.2096809 287.62920423 -212.20581055 292.12939453 C-212.88643555 292.65791016 -213.56706055 293.18642578 -214.26831055 293.73095703 C-229.6672031 305.94179761 -236.51497606 325.71381952 -241.77529907 343.90835571 C-242.59799613 346.75128131 -243.43806015 349.5885748 -244.28271484 352.42504883 C-246.39208142 359.51867449 -248.47518256 366.61988773 -250.54516602 373.72509766 C-257.46029596 397.41975185 -265.00266161 417.83745883 -287.20581055 431.12939453 C-288.15133789 431.70753906 -288.15133789 431.70753906 -289.1159668 432.29736328 C-299.1037963 437.8320204 -311.14411847 440.27398854 -322.45263672 440.29052734 C-323.26945419 440.29549225 -324.08627167 440.30045715 -324.92784119 440.30557251 C-327.61816255 440.32012827 -330.30842511 440.32698223 -332.9987793 440.33251953 C-334.87014263 440.33827284 -336.74150595 440.34403055 -338.61286926 440.34979248 C-342.52918776 440.36028118 -346.44548584 440.36613896 -350.36181641 440.36962891 C-355.38929132 440.375134 -360.41649818 440.39921361 -365.44388866 440.42760086 C-369.30508734 440.44617792 -373.16622049 440.45143001 -377.0274601 440.45296478 C-378.88189485 440.45599892 -380.73632824 440.4640529 -382.59071922 440.47714996 C-385.17641414 440.49412072 -387.76144066 440.49235346 -390.34716797 440.48583984 C-391.11758423 440.49505463 -391.88800049 440.50426941 -392.6817627 440.51376343 C-394.8099823 440.49688721 -394.8099823 440.49688721 -398.20581055 440.12939453 C-400.20581055 437.12939453 -400.20581055 437.12939453 -399.5534668 433.83105469 C-399.13883884 432.43934915 -398.70920225 431.0520665 -398.26831055 429.66845703 C-397.92188759 428.52680588 -397.92188759 428.52680588 -397.56846619 427.36209106 C-396.79396892 424.82198217 -396.00028967 422.28831862 -395.20581055 419.75439453 C-394.65478132 417.96726163 -394.1047505 416.17982061 -393.55566406 414.39208984 C-392.38779563 410.59750706 -391.21162179 406.80561939 -390.03051758 403.01513672 C-388.5137478 398.13826471 -387.0267232 393.25295173 -385.55058289 388.36364746 C-378.97347089 366.58311571 -372.25749631 345.03396395 -363.20581055 324.12939453 C-362.82650391 323.24799805 -362.44719727 322.36660156 -362.05639648 321.45849609 C-351.461771 297.17953496 -336.6856742 274.97140192 -319.20581055 255.12939453 C-318.57030273 254.39462891 -317.93479492 253.65986328 -317.2800293 252.90283203 C-315.60188865 250.96621915 -313.90565237 249.04696891 -312.20581055 247.12939453 C-311.49811523 246.31728516 -310.79041992 245.50517578 -310.0612793 244.66845703 C-306.00263579 240.06359063 -301.89803956 235.77153475 -297.2019043 231.81689453 C-295.16986961 230.09901002 -293.22512064 228.30721381 -291.26831055 226.50439453 C-278.90606099 215.56041676 -265.52810169 206.30316343 -251.20581055 198.12939453 C-250.50488281 197.72736816 -249.80395508 197.3253418 -249.08178711 196.91113281 C-213.63335675 176.7982541 -175.87749818 169.67539596 -135.53076172 169.54394531 C-124.72430334 169.47535029 -114.75276835 168.57593518 -104.20581055 166.12939453 C-103.27381836 165.91726318 -102.34182617 165.70513184 -101.3815918 165.48657227 C-83.81340614 161.21141714 -68.44645527 148.63289136 -58.20581055 134.12939453 C-57.74948242 133.51064453 -57.2931543 132.89189453 -56.82299805 132.25439453 C-49.61693818 121.73989209 -46.10654427 108.22171112 -42.44799805 96.16064453 C-42.01857361 94.76207273 -41.58858093 93.36367529 -41.1580658 91.96543884 C-40.25547154 89.02982052 -39.35675653 86.09305667 -38.46133423 83.15524292 C-37.06863158 78.58605552 -35.66650689 74.01979215 -34.26318359 69.45385742 C-30.5379448 57.32619667 -26.83268599 45.19245443 -23.13580322 33.05612183 C-22.01506167 29.37860572 -20.89147541 25.70196199 -19.76763916 22.02539062 C-19.03487398 19.62123802 -18.30825815 17.21528992 -17.58227539 14.80908203 C-17.15101956 13.39364978 -16.71955744 11.97828036 -16.2878418 10.56298828 C-15.92924072 9.37761475 -15.57063965 8.19224121 -15.20117188 6.97094727 C-14.20581055 4.12939453 -14.20581055 4.12939453 -12.20581055 1.12939453 C-8.13731312 0.11951101 -4.17744205 0.00313948 0 0 Z " fill="#122C4A" transform="translate(414.205810546875,8.87060546875)"/>
<path d="M0 0 C0.33 0 0.66 0 1 0 C0.45124641 6.52180378 -0.77787723 12.32942642 -2.74609375 18.55859375 C-3.02817688 19.47415543 -3.31026001 20.3897171 -3.60089111 21.33302307 C-4.53876464 24.3702809 -5.48813309 27.40381696 -6.4375 30.4375 C-7.11311045 32.61761419 -7.78797889 34.79795844 -8.4621582 36.97851562 C-10.26517549 42.8032603 -12.0779162 48.6249343 -13.89282227 54.44598389 C-15.69936062 60.24493218 -17.49795321 66.04634158 -19.296875 71.84765625 C-21.51039819 78.98418543 -23.72460887 86.12049816 -25.94189453 93.25585938 C-31.75809005 111.97508623 -37.54648621 130.70275875 -43.3125 149.4375 C-43.63116343 150.47286015 -43.63116343 150.47286015 -43.9562645 151.52913666 C-49.34749784 169.04804114 -54.70725269 186.57604582 -60 204.125 C-60.5092102 205.81162509 -61.01848643 207.49823025 -61.52783203 209.18481445 C-62.02506601 210.8315427 -62.52229909 212.47827121 -63.01953125 214.125 C-63.26119019 214.92524094 -63.50284912 215.72548187 -63.75183105 216.54997253 C-65.06119639 220.88682388 -66.36848183 225.22429023 -67.67333984 229.5625 C-69.07003825 234.20351236 -70.47484845 238.84200437 -71.88500977 243.47894287 C-72.41515564 245.22699687 -72.94255249 246.97588722 -73.46704102 248.72564697 C-74.18316356 251.11359203 -74.90871472 253.49846765 -75.63671875 255.8828125 C-75.84753586 256.59397217 -76.05835297 257.30513184 -76.27555847 258.0378418 C-76.79197068 259.71104825 -77.38844881 261.35917504 -78 263 C-80.47542436 264.23771218 -82.10282236 264.12309772 -84.87210083 264.12025452 C-85.90137695 264.12162918 -86.93065308 264.12300385 -87.99111938 264.12442017 C-89.12471893 264.12082489 -90.25831848 264.11722961 -91.42626953 264.11352539 C-92.61649719 264.11367142 -93.80672485 264.11381744 -95.03302002 264.1139679 C-98.3014094 264.11338958 -101.56975627 264.10836573 -104.83813715 264.10139394 C-108.25210543 264.09515317 -111.6660745 264.09455603 -115.08004761 264.09336853 C-121.54694473 264.09025735 -128.01382499 264.08204683 -134.48071468 264.07201904 C-141.84216642 264.06085129 -149.20361896 264.05534578 -156.56507707 264.05032361 C-171.71006078 264.03986405 -186.85502871 264.02226873 -202 264 C-203.09289369 259.36762663 -202.59355403 256.65201745 -201.18017578 252.0690918 C-200.97320887 251.38668301 -200.76624195 250.70427422 -200.55300331 250.00118637 C-199.86131117 247.73037588 -199.15333737 245.46498488 -198.4453125 243.19921875 C-197.95089895 241.58739617 -197.45753333 239.97525183 -196.96514893 238.36280823 C-195.63948289 234.0313523 -194.29997369 229.70429166 -192.95793915 225.37788391 C-191.56856907 220.89023446 -190.19214807 216.3986207 -188.81494141 211.90722656 C-186.87217549 205.57489168 -184.92576397 199.24370234 -182.97424126 192.91406059 C-179.8997898 182.94132404 -176.85062055 172.96125709 -173.828125 162.97265625 C-173.63327892 162.32893759 -173.43843285 161.68521893 -173.23768234 161.02199364 C-171.94925616 156.76492398 -170.66210787 152.50746837 -169.375 148.25 C-167.20736981 141.08316866 -165.03241315 133.91872678 -162.83972168 126.75952148 C-161.98803687 123.96068635 -161.15216391 121.15743318 -160.31738281 118.35351562 C-159.78755875 116.6053325 -159.25730795 114.85727862 -158.7265625 113.109375 C-158.4937558 112.31267395 -158.2609491 111.5159729 -158.02108765 110.69512939 C-156.34068817 105.22712544 -156.34068817 105.22712544 -153 103 C-151.04907227 102.42504883 -151.04907227 102.42504883 -148.81640625 101.95703125 C-147.5644043 101.68306519 -147.5644043 101.68306519 -146.28710938 101.40356445 C-144.93842773 101.11098755 -144.93842773 101.11098755 -143.5625 100.8125 C-113.02948428 93.80177917 -84.94247818 79.85460526 -60 61 C-59.41621582 60.56042969 -58.83243164 60.12085938 -58.23095703 59.66796875 C-40.17076167 45.98854111 -24.48772551 30.30052726 -10.43823242 12.54248047 C-3.06149855 3.23569477 -3.06149855 3.23569477 0 0 Z " fill="#122B4A" transform="translate(473,185)"/>
<path d="M0 0 C3.2222955 0.00544181 6.44445629 -0.00002705 9.66674805 -0.00634766 C11.74031606 -0.00568806 13.81388399 -0.00440936 15.88745117 -0.00244141 C16.83852249 -0.00446564 17.78959381 -0.00648987 18.76948547 -0.00857544 C23.72622162 0.00886422 28.50771588 0.09948056 33.36791992 1.13037109 C34.77283951 3.94021027 33.93983438 5.1821588 33.02416992 8.16552734 C32.69263916 9.25865234 32.3611084 10.35177734 32.01953125 11.47802734 C31.63949951 12.70392578 31.25946777 13.92982422 30.86791992 15.19287109 C30.46452159 16.51298585 30.06179388 17.83330568 29.65966797 19.15380859 C28.74954144 22.13709127 27.83452119 25.11882071 26.91625977 28.09960938 C25.24261533 33.53326639 23.58043737 38.97040628 21.91870117 44.40771484 C19.7040872 51.65140973 17.48705382 58.89435649 15.26708984 66.13641357 C11.46071541 78.55401168 7.66477605 90.97474781 3.88183594 103.39950562 C3.00250415 106.28640547 2.12179547 109.17288273 1.2409668 112.05932617 C-1.34738612 120.55055735 -3.91380116 129.04659017 -6.40161133 137.56787109 C-6.81964612 138.99213451 -7.23777418 140.41637056 -7.65600586 141.84057617 C-8.40888039 144.40529445 -9.14876032 146.97257483 -9.8815918 149.54321289 C-10.20530762 150.64834229 -10.52902344 151.75347168 -10.86254883 152.89208984 C-11.13478271 153.84043701 -11.4070166 154.78878418 -11.6875 155.76586914 C-12.69913194 158.29821739 -13.45914624 159.50280725 -15.63208008 161.13037109 C-17.75073242 161.89477539 -17.75073242 161.89477539 -20.21801758 162.45458984 C-21.13808594 162.6741333 -22.0581543 162.89367676 -23.00610352 163.11987305 C-24.49158691 163.46538208 -24.49158691 163.46538208 -26.00708008 163.81787109 C-83.50414381 178.05674363 -131.83772184 215.6249719 -166.25708008 263.06787109 C-167.04083008 264.07849609 -167.82458008 265.08912109 -168.63208008 266.13037109 C-169.29208008 266.13037109 -169.95208008 266.13037109 -170.63208008 266.13037109 C-170.03620611 258.29233664 -167.68087724 251.04440905 -165.38989258 243.56005859 C-164.94987337 242.10575429 -164.51040857 240.65128215 -164.07145691 239.19665527 C-162.88782142 235.2803353 -161.6960484 231.3665354 -160.50265884 227.45317841 C-159.24585109 223.32695681 -157.99655479 219.19846089 -156.74609375 215.0703125 C-149.76374453 192.03579785 -142.71966119 169.01988484 -135.63989258 146.01513672 C-131.73677805 133.32358864 -127.86742906 120.62330174 -124.06246758 107.9020195 C-123.40574654 105.70669452 -122.74827598 103.51159534 -122.09059143 101.31655884 C-120.2026215 95.01389905 -118.31668705 88.71071051 -116.44628048 82.40281296 C-115.86897959 80.45939989 -115.28876127 78.51688538 -114.70732117 76.57470703 C-114.00323816 74.22222902 -113.30384022 71.86834065 -112.61042786 69.51269531 C-107.26639277 51.73389202 -99.73521602 37.25214592 -86.63208008 24.13037109 C-85.53573242 23.01662109 -85.53573242 23.01662109 -84.41723633 21.88037109 C-70.62898597 8.73403183 -51.60898298 1.47724127 -32.80786133 0.57568359 C-31.94268387 0.533638 -31.07750641 0.49159241 -30.18611145 0.44827271 C-20.12648365 0.00416978 -10.06779573 -0.02026498 0 0 Z " fill="#122C4A" transform="translate(237.632080078125,8.86962890625)"/>
<path d="M0 0 C0.99 0 1.98 0 3 0 C1.53849164 12.6151248 1.53849164 12.6151248 -1.0625 16.9375 C-4.23087994 22.39088258 -3.82732976 28.8529396 -4 35 C-4.99 35 -5.98 35 -7 35 C-7.33 35.66 -7.66 36.32 -8 37 C2.90997488 36.89214894 13.81988806 36.77944706 24.72974968 36.66066074 C29.79637485 36.60564556 34.86300596 36.55226149 39.9296875 36.50268555 C44.82509136 36.45472415 49.72043088 36.40237302 54.61575699 36.34705925 C56.47750355 36.32677868 58.33926766 36.30804344 60.20104599 36.29092598 C73.62935866 36.17132182 73.62935866 36.17132182 87 35 C87 34.34 87 33.68 87 33 C87.65226562 32.82984375 88.30453125 32.6596875 88.9765625 32.484375 C95.01184143 30.83073561 95.01184143 30.83073561 100.4375 27.8125 C103 26 103 26 106 26 C106 24.35 106 22.7 106 21 C107.65 21 109.3 21 111 21 C111 20.34 111 19.68 111 19 C111.66 19 112.32 19 113 19 C113 18.34 113 17.68 113 17 C113.66 17 114.32 17 115 17 C115.28875 16.360625 115.5775 15.72125 115.875 15.0625 C117 13 117 13 119 12 C119.33 12.99 119.66 13.98 120 15 C112.34533145 27.88155043 96.95738851 34.38003912 83.26953125 38.16796875 C77.6709367 39.5927007 72.53329262 40.15267934 66.75317383 40.16113281 C65.93635635 40.16609772 65.11953888 40.17106262 64.27796936 40.17617798 C61.587648 40.19073374 58.89738544 40.19758769 56.20703125 40.203125 C54.33566791 40.20887831 52.46430459 40.21463602 50.59294128 40.22039795 C46.67662278 40.23088665 42.7603247 40.23674443 38.84399414 40.24023438 C33.81651922 40.24573947 28.78931236 40.26981908 23.76192188 40.29820633 C19.9007232 40.31678339 16.03959005 40.32203548 12.17835045 40.32357025 C10.3239157 40.32660439 8.46948231 40.33465837 6.61509132 40.34775543 C4.0293964 40.36472619 1.44436989 40.36295892 -1.14135742 40.35644531 C-2.29698181 40.37026749 -2.29698181 40.37026749 -3.47595215 40.3843689 C-5.60417175 40.36749268 -5.60417175 40.36749268 -9 40 C-9.66 39.01 -10.32 38.02 -11 37 C-10.3929437 34.1016186 -9.67804587 31.42563618 -8.7890625 28.61328125 C-8.54207611 27.79627243 -8.29508972 26.97926361 -8.0406189 26.13749695 C-7.24778459 23.52520234 -6.43666717 20.91899738 -5.625 18.3125 C-5.0847252 16.54398969 -4.54564733 14.77511325 -4.0078125 13.00585938 C-2.68573383 8.66620014 -1.34722938 4.33191407 0 0 Z " fill="#16253B" transform="translate(25,409)"/>
<path d="M0 0 C1.21807343 -0.00311188 2.43614685 -0.00622375 3.69113159 -0.00942993 C5.00775787 -0.00744598 6.32438416 -0.00546204 7.6809082 -0.00341797 C9.08163479 -0.00443469 10.48236117 -0.00577478 11.88308716 -0.00741577 C15.63897369 -0.01011422 19.39481887 -0.00565227 23.15069962 0.00082397 C25.47972996 0.00439153 27.80875413 0.00601251 30.13778687 0.00708008 C58.03198298 0.02295786 85.90854184 0.41569203 113.79418945 1.12939453 C113.46418945 3.43939453 113.13418945 5.74939453 112.79418945 8.12939453 C112.13418945 8.12939453 111.47418945 8.12939453 110.79418945 8.12939453 C110.46418945 9.77939453 110.13418945 11.42939453 109.79418945 13.12939453 C108.16808609 8.90152578 109.13965542 8.09299662 110.79418945 3.12939453 C69.87418945 3.12939453 28.95418945 3.12939453 -13.20581055 3.12939453 C-12.87581055 2.46939453 -12.54581055 1.80939453 -12.20581055 1.12939453 C-8.12129325 0.18728862 -4.17940194 0.00314096 0 0 Z " fill="#0A1727" transform="translate(414.205810546875,8.87060546875)"/>
<path d="M0 0 C1.60294922 0.01353516 1.60294922 0.01353516 3.23828125 0.02734375 C4.04652344 0.03894531 4.85476563 0.05054688 5.6875 0.0625 C3.42631962 2.80665095 2.21155508 3.95660286 -1.328125 4.671875 C-2.92914063 4.74148438 -2.92914063 4.74148438 -4.5625 4.8125 C-6.17898438 4.89757812 -6.17898438 4.89757812 -7.828125 4.984375 C-9.05789063 5.02304687 -9.05789063 5.02304687 -10.3125 5.0625 C-13.14624078 10.72998157 -13.94473832 15.75982561 -14.3125 22.0625 C-14.6425 21.4025 -14.9725 20.7425 -15.3125 20.0625 C-15.9725 20.0625 -16.6325 20.0625 -17.3125 20.0625 C-17.43625 20.990625 -17.56 21.91875 -17.6875 22.875 C-17.89185435 24.27142142 -18.10079537 25.66717401 -18.3125 27.0625 C-18.4465625 27.95453125 -18.580625 28.8465625 -18.71875 29.765625 C-19.59627989 35.11855732 -20.79078691 39.22921658 -23.3125 44.0625 C-24.80399445 49.30210064 -25.62370091 54.66690712 -26.3125 60.0625 C-27.9625 60.0625 -29.6125 60.0625 -31.3125 60.0625 C-28.86017183 49.22846447 -25.55037929 38.64639065 -22.26953125 28.04101562 C-21.30499363 24.9131579 -20.35566297 21.78091426 -19.40625 18.6484375 C-18.79259772 16.6585668 -18.17804728 14.66897281 -17.5625 12.6796875 C-17.28116211 11.74333466 -16.99982422 10.80698181 -16.70996094 9.84225464 C-16.43958008 8.98020416 -16.16919922 8.11815369 -15.890625 7.22998047 C-15.65762695 6.47119598 -15.42462891 5.7124115 -15.18457031 4.93063354 C-14.3125 3.0625 -14.3125 3.0625 -11.3125 1.0625 C-7.51217823 0.03311131 -3.92362068 -0.04311671 0 0 Z " fill="#142539" transform="translate(331.3125,286.9375)"/>
<path d="M0 0 C0.66 0 1.32 0 2 0 C0.97315782 9.36418766 -1.44840344 17.31042707 -5 26 C-6.57662121 30.72986364 -7.29045113 35.03671108 -7.55859375 39.984375 C-8 42 -8 42 -9.4375 43.375 C-11.70898744 45.73734694 -11.91526934 48.06932362 -12.5625 51.25 C-12.81 52.41015625 -13.0575 53.5703125 -13.3125 54.765625 C-13.539375 55.83296875 -13.76625 56.9003125 -14 58 C-15.0408497 62.1344863 -16.41732758 66.04331896 -18 70 C-18.68679942 72.32748694 -19.35761043 74.65986656 -20 77 C-21.98 77.495 -21.98 77.495 -24 78 C-20.25135744 65.40379338 -16.50012703 52.80836168 -12.745224 40.21401978 C-11.08295219 34.63756074 -9.42325025 29.06035715 -7.76850891 23.48165894 C-6.93327794 20.66733816 -6.09563977 17.85373846 -5.2572937 15.04034424 C-4.69545339 13.15173508 -4.13688746 11.26215283 -3.57836914 9.37255859 C-3.24699951 8.26219238 -2.91562988 7.15182617 -2.57421875 6.0078125 C-2.29151123 5.05535645 -2.00880371 4.10290039 -1.7175293 3.12158203 C-1 1 -1 1 0 0 Z " fill="#0D2035" transform="translate(121,94)"/>
<path d="M0 0 C0.99 0.33 1.98 0.66 3 1 C2.54687597 6.24217633 0.89092766 8.98781738 -2.375 13.0625 C-2.81980713 13.62122803 -3.26461426 14.17995605 -3.72290039 14.75561523 C-5.13404999 16.5161642 -6.56373449 18.25989971 -8 20 C-8.67893311 20.82757813 -8.67893311 20.82757813 -9.37158203 21.671875 C-33.36198097 50.80369301 -33.36198097 50.80369301 -44 58 C-44.99 58 -45.98 58 -47 58 C-47.495 56.515 -47.495 56.515 -48 55 C-47.2575 54.773125 -46.515 54.54625 -45.75 54.3125 C-42.44133795 52.73336584 -41.20535574 50.8945294 -39 48 C-34.45945946 44 -34.45945946 44 -32 44 C-32 43.34 -32 42.68 -32 42 C-31.34 42 -30.68 42 -30 42 C-29.731875 41.4225 -29.46375 40.845 -29.1875 40.25 C-28 38 -28 38 -26.4375 35.9375 C-24.81311272 33.95818504 -24.81311272 33.95818504 -24 31 C-21.9375 30.3125 -21.9375 30.3125 -20 30 C-20 29.34 -20 28.68 -20 28 C-18.625 26.375 -18.625 26.375 -17 25 C-16.34 25 -15.68 25 -15 25 C-14.505 23.515 -14.505 23.515 -14 22 C-13.34 22 -12.68 22 -12 22 C-11.67 20.68 -11.34 19.36 -11 18 C-10.34 18 -9.68 18 -9 18 C-8.896875 17.4225 -8.79375 16.845 -8.6875 16.25 C-7.89103535 13.64338842 -6.80934723 12.0264689 -5 10 C-4.34 10 -3.68 10 -3 10 C-2.67 8.02 -2.34 6.04 -2 4 C-1.34 4 -0.68 4 0 4 C0 2.68 0 1.36 0 0 Z " fill="#19293C" transform="translate(463,166)"/>
<path d="M0 0 C0.66 0 1.32 0 2 0 C1.71125 1.2065625 1.4225 2.413125 1.125 3.65625 C0.74954035 5.27072651 0.3745662 6.88531597 0 8.5 C-0.28617187 9.68722656 -0.28617187 9.68722656 -0.578125 10.8984375 C-1.76334941 16.06262957 -2.19441282 20.70225061 -2 26 C-2.66 26 -3.32 26 -4 26 C-4.268125 26.804375 -4.53625 27.60875 -4.8125 28.4375 C-5.204375 29.613125 -5.59625 30.78875 -6 32 C-6.21785156 32.68835937 -6.43570312 33.37671875 -6.66015625 34.0859375 C-7.93110453 38.04462886 -9.32951965 41.84336629 -11.0625 45.625 C-14.03855707 52.16553606 -15.50863261 59.00326573 -17 66 C-17.33 65.01 -17.66 64.02 -18 63 C-18.66 62.67 -19.32 62.34 -20 62 C-17.54365691 54.0627142 -15.08396208 46.12647844 -12.61993504 38.19157505 C-11.47599794 34.50738011 -10.33323576 30.82282916 -9.19311523 27.13745117 C-8.09358865 23.58344162 -6.99103277 20.03038521 -5.88633537 16.47797966 C-5.46459993 15.11989042 -5.04397267 13.76145656 -4.62445259 12.40268135 C-4.03842468 10.50526742 -3.44815236 8.60916594 -2.85766602 6.71313477 C-2.52235367 5.63169693 -2.18704132 4.55025909 -1.84156799 3.43605042 C-1 1 -1 1 0 0 Z " fill="#1A2B3E" transform="translate(401,12)"/>
<path d="M0 0 C0.66 0 1.32 0 2 0 C0.6642375 7.57986057 -1.33737708 14.83267339 -3.625 22.17578125 C-3.97256348 23.30396774 -4.32012695 24.43215424 -4.67822266 25.5945282 C-5.40880716 27.96258196 -6.1417537 30.32990816 -6.87695312 32.6965332 C-8.00155555 36.31750853 -9.11856299 39.94076048 -10.234375 43.56445312 C-10.9474751 45.87253231 -11.66100188 48.18047971 -12.375 50.48828125 C-12.70838379 51.5685408 -13.04176758 52.64880035 -13.38525391 53.76179504 C-13.69897949 54.77021957 -14.01270508 55.7786441 -14.3359375 56.81762695 C-14.74658447 58.14139091 -14.74658447 58.14139091 -15.16552734 59.49189758 C-16.01345707 62.04044675 -16.97758944 64.51687608 -18 67 C-18.66 67 -19.32 67 -20 67 C-20.495 67.99 -20.495 67.99 -21 69 C-21.18451025 59.58997722 -21.18451025 59.58997722 -20 55 C-19.34 55.33 -18.68 55.66 -18 56 C-16.24265549 51.02638346 -14.67415387 46.2584002 -14 41 C-13.34 41 -12.68 41 -12 41 C-11.86722656 40.31292969 -11.73445313 39.62585938 -11.59765625 38.91796875 C-11.42105469 38.01691406 -11.24445313 37.11585938 -11.0625 36.1875 C-10.88847656 35.29417969 -10.71445312 34.40085937 -10.53515625 33.48046875 C-10 31 -10 31 -9 28 C-8.93197033 26.27204648 -8.91504355 24.54164635 -8.9375 22.8125 C-8.94652344 21.91144531 -8.95554687 21.01039063 -8.96484375 20.08203125 C-8.97644531 19.39496094 -8.98804688 18.70789063 -9 18 C-8.01 17.67 -7.02 17.34 -6 17 C-4.81273657 13.8518066 -4.81273657 13.8518066 -3.9375 10.125 C-2.18817652 3.28226478 -2.18817652 3.28226478 0 0 Z " fill="#112437" transform="translate(430,324)"/>
<path d="M0 0 C2.58441472 1.29220736 2.99846249 2.31959967 4 5 C3.86094666 7.22203064 3.86094666 7.22203064 3.30834961 9.61694336 C3.00560623 10.93817703 3.00560623 10.93817703 2.69674683 12.28610229 C1.58899884 16.60089009 0.37100042 20.86966806 -0.93359375 25.12890625 C-1.21219742 26.04461899 -1.49080109 26.96033173 -1.77784729 27.90379333 C-2.36265084 29.81794782 -2.9501589 31.731278 -3.5402832 33.64379883 C-4.44363364 36.58245312 -5.32838138 39.52633094 -6.21289062 42.47070312 C-6.78532887 44.33628444 -7.35885692 46.20153178 -7.93359375 48.06640625 C-8.3274955 49.3896566 -8.3274955 49.3896566 -8.72935486 50.73963928 C-8.98294266 51.54815842 -9.23653046 52.35667755 -9.49780273 53.18969727 C-9.71605209 53.90344009 -9.93430145 54.61718292 -10.15916443 55.35255432 C-11 57 -11 57 -14 58 C-13.01 47.605 -13.01 47.605 -12 37 C-11.01 37 -10.02 37 -9 37 C-8.72285156 36.07316406 -8.44570313 35.14632812 -8.16015625 34.19140625 C-7.79792969 32.99386719 -7.43570312 31.79632813 -7.0625 30.5625 C-6.70285156 29.36753906 -6.34320313 28.17257812 -5.97265625 26.94140625 C-5 24 -5 24 -4 23 C-3.77475615 21.0371607 -3.55245212 19.07355278 -3.37890625 17.10546875 C-3 15 -3 15 -2.00390625 13.09765625 C-0.73602891 10.44843395 -0.5836106 8.17054842 -0.375 5.25 C-0.30023438 4.26515625 -0.22546875 3.2803125 -0.1484375 2.265625 C-0.09945313 1.51796875 -0.05046875 0.7703125 0 0 Z " fill="#192B40" transform="translate(445,264)"/>
<path d="M0 0 C-0.66 0.99 -1.32 1.98 -2 3 C-4.95605606 3.30181034 -7.71298628 3.41685965 -10.671875 3.40625 C-11.54587952 3.41708618 -12.41988403 3.42792236 -13.32037354 3.43908691 C-16.13032237 3.4734376 -18.93986882 3.48893081 -21.75 3.5 C-36.59823269 3.55984043 -50.00413085 4.23884891 -64.1328125 9.3515625 C-66.06849998 10.0237887 -68.00641598 10.53040021 -70 11 C-70 10.01 -70 9.02 -70 8 C-67.46083825 7.01388849 -64.9189977 6.03599124 -62.375 5.0625 C-61.66214844 4.78470703 -60.94929687 4.50691406 -60.21484375 4.22070312 C-53.30558715 1.5901146 -46.74933488 0.80202508 -39.375 0.4375 C-38.11478027 0.37381226 -38.11478027 0.37381226 -36.82910156 0.30883789 C-24.56179145 -0.23688831 -12.27599968 -0.08646944 0 0 Z " fill="#0F2035" transform="translate(244,9)"/>
<path d="M0 0 C0.66 0.33 1.32 0.66 2 1 C0.71909866 4.84270401 -0.83661708 5.5512094 -4.125 7.875 C-20.36928077 19.67485742 -36.03636192 33.81181316 -48 50 C-49.32 49.67 -50.64 49.34 -52 49 C-50.515 48.505 -50.515 48.505 -49 48 C-48.9071875 46.9171875 -48.9071875 46.9171875 -48.8125 45.8125 C-47.7446249 42.11600926 -45.89180184 40.46861132 -43 38 C-42.34 38 -41.68 38 -41 38 C-41 37.34 -41 36.68 -41 36 C-39.64453125 34.66796875 -39.64453125 34.66796875 -37.8125 33.1875 C-34.69700774 30.60270282 -31.82981954 27.90056503 -29 25 C-25.15492457 21.0659182 -21.3137243 17.42560459 -17 14 C-16.67 13.34 -16.34 12.68 -16 12 C-15.01 12 -14.02 12 -13 12 C-13 11.34 -13 10.68 -13 10 C-12.34 10 -11.68 10 -11 10 C-11 9.34 -11 8.68 -11 8 C-9.66666667 7 -8.33333333 6 -7 5 C-7 4.34 -7 3.68 -7 3 C-4.69631264 1.93347808 -2.35981813 0.93578995 0 0 Z " fill="#102135" transform="translate(132,206)"/>
<path d="M0 0 C0.99 0 1.98 0 3 0 C3 3.96 3 7.92 3 12 C2.01 12 1.02 12 0 12 C-1.57077907 17.02649303 -2.44854729 21.76119922 -3 27 C-3.99 27.33 -4.98 27.66 -6 28 C-6.12375 29.051875 -6.2475 30.10375 -6.375 31.1875 C-7 35 -7 35 -8.125 37.5 C-9.30766186 40.87903387 -8.51817339 43.50232964 -8 47 C-8.66 47.99 -9.32 48.98 -10 50 C-10.495 48.515 -10.495 48.515 -11 47 C-11.66 47 -12.32 47 -13 47 C-13.33 47.66 -13.66 48.32 -14 49 C-13.36453187 43.39105928 -12.00496875 38.26749898 -10.3125 32.890625 C-10.04993408 32.0419989 -9.78736816 31.1933728 -9.5168457 30.31903076 C-8.68285946 27.62778317 -7.84151668 24.93890123 -7 22.25 C-6.43441597 20.42853435 -5.86930703 18.60692111 -5.3046875 16.78515625 C-1.38199701 4.14599103 -1.38199701 4.14599103 0 0 Z " fill="#12253A" transform="translate(93,185)"/>
<path d="M0 0 C0.99 0 1.98 0 3 0 C1.53849164 12.6151248 1.53849164 12.6151248 -1.0625 16.9375 C-4.23087994 22.39088258 -3.82732976 28.8529396 -4 35 C-4.99 35 -5.98 35 -7 35 C-7.33 35.66 -7.66 36.32 -8 37 C-2.72 37 2.56 37 8 37 C3.54365268 39.22817366 0.31386977 40.15089225 -4.625 40.25 C-5.78902344 40.28867187 -5.78902344 40.28867187 -6.9765625 40.328125 C-7.64429688 40.21984375 -8.31203125 40.1115625 -9 40 C-9.66 39.01 -10.32 38.02 -11 37 C-10.3929437 34.1016186 -9.67804587 31.42563618 -8.7890625 28.61328125 C-8.54207611 27.79627243 -8.29508972 26.97926361 -8.0406189 26.13749695 C-7.24778459 23.52520234 -6.43666717 20.91899738 -5.625 18.3125 C-5.0847252 16.54398969 -4.54564733 14.77511325 -4.0078125 13.00585938 C-2.68573383 8.66620014 -1.34722938 4.33191407 0 0 Z " fill="#091C31" transform="translate(25,409)"/>
<path d="M0 0 C0.66 0.33 1.32 0.66 2 1 C0.48991143 4.9192472 -1.78688072 6.56879278 -5.1875 8.9375 C-6.17363281 9.63488281 -7.15976563 10.33226562 -8.17578125 11.05078125 C-9.81354706 12.18113414 -11.45491542 13.30637161 -13.10546875 14.41796875 C-17.1501306 17.17691028 -19.92476578 20.21509634 -23 24 C-28.2617801 29 -28.2617801 29 -31 29 C-31.66 30.32 -32.32 31.64 -33 33 C-33.66 33 -34.32 33 -35 33 C-35 33.99 -35 34.98 -35 36 C-35.66 36 -36.32 36 -37 36 C-37.66 37.32 -38.32 38.64 -39 40 C-39.66 40 -40.32 40 -41 40 C-41 40.66 -41 41.32 -41 42 C-43.475 42.495 -43.475 42.495 -46 43 C-32.30773543 26.85014948 -32.30773543 26.85014948 -25.0078125 20.6953125 C-22.91556741 18.92870867 -20.89873425 17.09451055 -18.875 15.25 C-12.83497798 9.85750231 -6.40044672 4.95283502 0 0 Z " fill="#132337" transform="translate(142,220)"/>
<path d="M0 0 C0.66 0.66 1.32 1.32 2 2 C4.20105023 2.30841519 4.20105023 2.30841519 6.78271484 2.26501465 C8.29705109 2.27742439 8.29705109 2.27742439 9.84197998 2.29008484 C11.50961395 2.28861198 11.50961395 2.28861198 13.2109375 2.28710938 C14.37844543 2.29394241 15.54595337 2.30077545 16.74884033 2.30781555 C19.95538877 2.32499527 23.16183038 2.33350305 26.36841583 2.33885384 C29.72009892 2.34703211 33.07171186 2.36795678 36.42333984 2.38806152 C44.9488537 2.43707068 53.47440328 2.46937173 62 2.5 C71.20312565 2.5330623 80.40618537 2.56892637 89.60920906 2.62413073 C92.94819849 2.64368029 96.28712168 2.65890268 99.62615967 2.66447449 C103.34722544 2.67187984 107.06805729 2.69111281 110.7890625 2.71289062 C112.45669647 2.71141777 112.45669647 2.71141777 114.15802002 2.70991516 C115.67235626 2.72232491 115.67235626 2.72232491 117.21728516 2.73498535 C118.0977652 2.73791847 118.97824524 2.74085159 119.88540649 2.7438736 C122 3 122 3 124 5 C123.01 5.33 122.02 5.66 121 6 C121 5.34 121 4.68 121 4 C85.03 4 49.06 4 12 4 C12 4.66 12 5.32 12 6 C8.04 6 4.08 6 0 6 C-0.33 4.35 -0.66 2.7 -1 1 C-0.67 0.67 -0.34 0.34 0 0 Z " fill="#0E2136" transform="translate(271,443)"/>
<path d="M0 0 C1.25010736 3.75032208 0.54033779 5.06599211 -0.75 8.75 C-1.12125 9.81992188 -1.4925 10.88984375 -1.875 11.9921875 C-2.75475912 14.34432126 -3.69004706 16.6022163 -4.75 18.875 C-6.06647476 22.16618689 -6.25675506 24.49101413 -6 28 C-3.66475218 25.74259377 -1.81294927 23.7194239 0 21 C0.99 21.33 1.98 21.66 3 22 C2.23816406 22.94359375 2.23816406 22.94359375 1.4609375 23.90625 C-2.41208585 28.72214421 -6.20343966 33.55569963 -9.7734375 38.6015625 C-10.17820312 39.06304687 -10.58296875 39.52453125 -11 40 C-11.66 40 -12.32 40 -13 40 C-12.45043839 32.62829433 -10.36793671 25.73625961 -8.24414062 18.68896484 C-7.62128431 16.6126134 -7.01733312 14.53133349 -6.4140625 12.44921875 C-6.01936174 11.12466198 -5.62356762 9.80043042 -5.2265625 8.4765625 C-4.69409912 6.683396 -4.69409912 6.683396 -4.15087891 4.85400391 C-3 2 -3 2 0 0 Z " fill="#1E2B44" transform="translate(80,235)"/>
<path d="M0 0 C0.66 0.33 1.32 0.66 2 1 C1.52492969 5.27563279 -0.95302534 7.16560497 -4 10 C-4.721875 10.763125 -5.44375 11.52625 -6.1875 12.3125 C-8 14 -8 14 -10 14 C-10 15.32 -10 16.64 -10 18 C-10.70125 18.165 -11.4025 18.33 -12.125 18.5 C-16.75543252 20.91587784 -19.68323965 25.3664793 -22 30 C-22.59296875 30.14308594 -23.1859375 30.28617188 -23.796875 30.43359375 C-26.49619491 31.12756784 -28.06424491 32.35032518 -30.25 34.0625 C-30.95640625 34.61035156 -31.6628125 35.15820312 -32.390625 35.72265625 C-33.18726563 36.35494141 -33.18726563 36.35494141 -34 37 C-34.66 36.67 -35.32 36.34 -36 36 C-33.05684785 32.0419678 -29.93790662 29.05802735 -26.0625 26 C-21.32198029 22.21015362 -16.97368347 18.17087427 -12.6875 13.875 C-11.82620483 13.01455078 -11.82620483 13.01455078 -10.94750977 12.13671875 C-7.10598418 8.24679161 -3.50481087 4.19497191 0 0 Z " fill="#15263B" transform="translate(454,208)"/>
<path d="M0 0 C0.99 0.33 1.98 0.66 3 1 C2.39428766 8.87426037 0.37022903 16.62722291 -3.41015625 23.6015625 C-6.23809036 29.64653222 -7.71219424 36.16651331 -9.48242188 42.5859375 C-9.77826172 43.63523437 -10.07410156 44.68453125 -10.37890625 45.765625 C-10.6426001 46.72243164 -10.90629395 47.67923828 -11.17797852 48.66503906 C-12 51 -12 51 -14 53 C-15.16415271 49.50754188 -14.78699767 48.51601715 -13.73657227 45.06958008 C-13.43618546 44.06876907 -13.13579865 43.06795807 -12.8263092 42.03681946 C-12.49304123 40.95861435 -12.15977325 39.88040924 -11.81640625 38.76953125 C-11.31487282 37.11119514 -11.31487282 37.11119514 -10.8032074 35.4193573 C-9.7311083 31.88120692 -8.64695823 28.34687958 -7.5625 24.8125 C-6.83449109 22.41755934 -6.10726741 20.02237983 -5.38085938 17.62695312 C-3.59634924 11.74849804 -1.80192551 5.87313859 0 0 Z " fill="#17283C" transform="translate(296,358)"/>
<path d="M0 0 C1.38137146 0.00212242 1.38137146 0.00212242 2.79064941 0.00428772 C5.70421734 0.00984218 8.61770568 0.022386 11.53125 0.03515625 C13.51822805 0.04017714 15.50520731 0.04473902 17.4921875 0.04882812 C22.33857188 0.05979665 27.18489749 0.07702942 32.03125 0.09765625 C32.03125 0.42765625 32.03125 0.75765625 32.03125 1.09765625 C31.35578125 1.14664062 30.6803125 1.195625 29.984375 1.24609375 C29.09234375 1.32085937 28.2003125 1.395625 27.28125 1.47265625 C25.95867187 1.57707031 25.95867187 1.57707031 24.609375 1.68359375 C22.06925344 1.94098635 22.06925344 1.94098635 20.21386719 3.10913086 C17.51053252 4.3334935 15.49308986 4.34081433 12.53125 4.328125 C11.479375 4.32619141 10.4275 4.32425781 9.34375 4.32226562 C8.250625 4.31001953 7.1575 4.29777344 6.03125 4.28515625 C4.938125 4.28451172 3.845 4.28386719 2.71875 4.28320312 C-5.76143039 4.23643742 -5.76143039 4.23643742 -9.96875 3.09765625 C-11.88436254 3.03077034 -13.80210592 3.01233906 -15.71875 3.03515625 C-16.70359375 3.04417969 -17.6884375 3.05320312 -18.703125 3.0625 C-19.82460937 3.07990234 -19.82460937 3.07990234 -20.96875 3.09765625 C-14.97338131 -0.89925621 -6.99976055 -0.04117553 0 0 Z " fill="#12263E" transform="translate(260.96875,275.90234375)"/>
<path d="M0 0 C0 0.66 0 1.32 0 2 C-0.5261792 2.23485107 -1.0523584 2.46970215 -1.59448242 2.71166992 C-15.0413801 8.77083243 -27.55650275 15.71816847 -39.95703125 23.69482422 C-42.27729289 25.17715198 -44.6267089 26.60423249 -47 28 C-46.00344362 24.31274141 -45.3417689 23.20648538 -42 21.1875 C-39 20 -39 20 -37 20 C-36.7834375 19.4121875 -36.566875 18.824375 -36.34375 18.21875 C-32.4322947 11.76030055 -22.38098046 8.53140276 -15.52734375 5.9765625 C-11.68164937 4.49059095 -7.97756994 2.7110131 -4.25 0.953125 C-2 0 -2 0 0 0 Z " fill="#15283B" transform="translate(180,181)"/>
<path d="M0 0 C0.66 0.66 1.32 1.32 2 2 C-10.54704079 12.10510712 -23.53277188 20.85402338 -38 28 C-37.5625 25.75 -37.5625 25.75 -36 23 C-32.6619213 21.02491752 -28.93787638 19 -25 19 C-24.67 18.01 -24.34 17.02 -24 16 C-21.03145515 13.80585815 -18.50820059 12.1694002 -15 11 C-15 10.34 -15 9.68 -15 9 C-14.01 8.62875 -13.02 8.2575 -12 7.875 C-7.47562436 5.9597735 -3.8097827 3.0577217 0 0 Z " fill="#182D3F" transform="translate(411,227)"/>
<path d="M0 0 C0.6875 1.6875 0.6875 1.6875 1 4 C-0.3125 6.75 -0.3125 6.75 -2 9 C-2.66 9 -3.32 9 -4 9 C-4.11472656 9.81082031 -4.22945312 10.62164062 -4.34765625 11.45703125 C-5.11594569 15.62971704 -6.23457346 19.62280069 -7.4375 23.6875 C-7.65470703 24.44611328 -7.87191406 25.20472656 -8.09570312 25.98632812 C-8.31033203 26.71658203 -8.52496094 27.44683594 -8.74609375 28.19921875 C-9.03504517 29.18668091 -9.03504517 29.18668091 -9.32983398 30.1940918 C-10 32 -10 32 -12 35 C-12.38499891 36.65549531 -12.72793135 38.3222433 -13 40 C-13.99 39.67 -14.98 39.34 -16 39 C-14.75754412 34.96068201 -13.51234218 30.92222377 -12.26464844 26.88452148 C-11.84105068 25.51235578 -11.41818894 24.13996264 -10.99609375 22.76733398 C-10.38737762 20.78828872 -9.77597229 18.81009105 -9.1640625 16.83203125 C-8.79748535 15.64327393 -8.4309082 14.4545166 -8.05322266 13.22973633 C-6.09256343 7.21732072 -6.09256343 7.21732072 -5 5 C-4.01 4.67 -3.02 4.34 -2 4 C-0.79117904 1.99983534 -0.79117904 1.99983534 0 0 Z " fill="#122439" transform="translate(137,53)"/>
<path d="M0 0 C0.66 0.33 1.32 0.66 2 1 C0.70524944 3.63690116 -0.66022115 6.20616251 -2.12890625 8.75 C-2.52400391 9.4409375 -2.91910156 10.131875 -3.32617188 10.84375 C-4.15135881 12.28293859 -4.97949415 13.7204406 -5.81054688 15.15625 C-6.20435547 15.8471875 -6.59816406 16.538125 -7.00390625 17.25 C-7.36299072 17.87390625 -7.7220752 18.4978125 -8.09204102 19.140625 C-9.07229057 20.98052589 -9.07229057 20.98052589 -9.49975586 23.046875 C-10 25 -10 25 -12 28 C-12.66 28 -13.32 28 -14 28 C-14.33 30.64 -14.66 33.28 -15 36 C-15.66 36 -16.32 36 -17 36 C-17.99 37.98 -18.98 39.96 -20 42 C-20.66 42 -21.32 42 -22 42 C-20.56881021 37.34147723 -18.6888165 33.02993433 -16.5 28.6875 C-15.98638916 27.66329956 -15.98638916 27.66329956 -15.46240234 26.6184082 C-10.81302276 17.49273116 -5.68271763 8.52407644 0 0 Z " fill="#203045" transform="translate(74,291)"/>
<path d="M0 0 C0.99 0.495 0.99 0.495 2 1 C1.01 1.495 1.01 1.495 0 2 C0 1.34 0 0.68 0 0 Z M-3 2 C-2.01 2.33 -1.02 2.66 0 3 C-0.58007812 3.56847656 -1.16015625 4.13695312 -1.7578125 4.72265625 C-10.36328596 12.74525527 -10.36328596 12.74525527 -16.5 22.5625 C-18.37741421 26.86490756 -20.47771797 28.927371 -24 32 C-24.66 32 -25.32 32 -26 32 C-24.49189275 27.60753461 -22.14086805 24.0429633 -19.4375 20.3125 C-18.99857422 19.70253174 -18.55964844 19.09256348 -18.10742188 18.46411133 C-7.84417201 4.42208601 -7.84417201 4.42208601 -3 2 Z " fill="#1C2E42" transform="translate(101,260)"/>
<path d="M0 0 C0.33 0.99 0.66 1.98 1 3 C-15.26278361 21.46258043 -15.26278361 21.46258043 -23 27 C-23.99 27 -24.98 27 -26 27 C-26.33 26.01 -26.66 25.02 -27 24 C-26.2575 23.773125 -25.515 23.54625 -24.75 23.3125 C-21.44133795 21.73336584 -20.20535574 19.8945294 -18 17 C-13.45945946 13 -13.45945946 13 -11 13 C-11 12.34 -11 11.68 -11 11 C-10.34 11 -9.68 11 -9 11 C-8.7525 10.46375 -8.505 9.9275 -8.25 9.375 C-4.0212766 1.34042553 -4.0212766 1.34042553 0 0 Z " fill="#112333" transform="translate(442,197)"/>
<path d="M0 0 C0.66 0.99 1.32 1.98 2 3 C-4.94448048 11.91168826 -13.64943569 18.48339012 -24 23 C-24.66 23 -25.32 23 -26 23 C-26 22.01 -26 21.02 -26 20 C-24.41925436 19.18247697 -22.83528777 18.37118003 -21.25 17.5625 C-20.36828125 17.11003906 -19.4865625 16.65757812 -18.578125 16.19140625 C-16.35801434 15.16544602 -14.38555381 14.48491397 -12 14 C-12 12.35 -12 10.7 -12 9 C-10.35 9 -8.7 9 -7 9 C-7 8.34 -7 7.68 -7 7 C-6.34 7 -5.68 7 -5 7 C-5 6.34 -5 5.68 -5 5 C-4.34 5 -3.68 5 -3 5 C-2.690625 4.360625 -2.38125 3.72125 -2.0625 3.0625 C-1 1 -1 1 0 0 Z " fill="#15273A" transform="translate(143,421)"/>
<path d="M0 0 C0.33 0 0.66 0 1 0 C0.91253716 1.43861294 0.80434652 2.87597508 0.6875 4.3125 C0.62949219 5.11300781 0.57148438 5.91351563 0.51171875 6.73828125 C-0.09213523 9.40722363 -1.02255969 10.1852283 -3 12 C-3.33 12.99 -3.66 13.98 -4 15 C-5.32639781 15.35994129 -6.66119358 15.68937765 -8 16 C-9.95826419 17.3867198 -9.95826419 17.3867198 -11.75 19.0625 C-12.36359375 19.61035156 -12.9771875 20.15820312 -13.609375 20.72265625 C-14.29773438 21.35494141 -14.29773438 21.35494141 -15 22 C-15 17.13507199 -13.96913093 16.29731941 -10.875 12.6875 C-10.05773437 11.72585937 -9.24046875 10.76421875 -8.3984375 9.7734375 C-7.60695313 8.85820312 -6.81546875 7.94296875 -6 7 C-5.06027344 5.87464844 -5.06027344 5.87464844 -4.1015625 4.7265625 C-2.76291808 3.12671917 -1.38587436 1.55910866 0 0 Z " fill="#13263B" transform="translate(473,185)"/>
<path d="M0 0 C12.87 0 25.74 0 39 0 C38.67 2.31 38.34 4.62 38 7 C37.34 7 36.68 7 36 7 C35.67 8.65 35.34 10.3 35 12 C33.37389663 7.77213125 34.34546597 6.96360209 36 2 C23.79 2 11.58 2 -1 2 C-0.67 1.34 -0.34 0.68 0 0 Z " fill="#0E1F34" transform="translate(489,10)"/>
<path d="M0 0 C0.66 0.33 1.32 0.66 2 1 C1.875 2.8125 1.875 2.8125 1 5 C-2.0625 6.75 -2.0625 6.75 -5 8 C-5 8.99 -5 9.98 -5 11 C-5.886875 11.2475 -6.77375 11.495 -7.6875 11.75 C-11.1377353 13.05197558 -13.17290711 14.68033404 -16 17 C-18.6875 18.1875 -18.6875 18.1875 -21 19 C-21.66 19.33 -22.32 19.66 -23 20 C-23 18.68 -23 17.36 -23 16 C-21.64233398 14.72314453 -21.64233398 14.72314453 -19.74609375 13.6328125 C-19.05580078 13.22160156 -18.36550781 12.81039063 -17.65429688 12.38671875 C-16.92275391 11.97035156 -16.19121094 11.55398437 -15.4375 11.125 C-9.80115226 7.85560891 -4.81091382 4.4123034 0 0 Z " fill="#152739" transform="translate(415,244)"/>
<path d="M0 0 C0.66 0 1.32 0 2 0 C2 0.99 2 1.98 2 3 C2.66 3.33 3.32 3.66 4 4 C3.08232715 7.15196802 2.13761064 10.29517191 1.1875 13.4375 C0.79594727 14.78424805 0.79594727 14.78424805 0.39648438 16.15820312 C0.00493164 17.43920898 0.00493164 17.43920898 -0.39453125 18.74609375 C-0.63018799 19.53685303 -0.86584473 20.3276123 -1.10864258 21.14233398 C-1.40279053 21.75536377 -1.69693848 22.36839355 -2 23 C-2.99 23.33 -3.98 23.66 -5 24 C-5.22245393 22.39773045 -5.42746669 20.79303233 -5.625 19.1875 C-5.74101562 18.29417969 -5.85703125 17.40085938 -5.9765625 16.48046875 C-6 14 -6 14 -4 11 C-3.34 11 -2.68 11 -2 11 C-1.34 7.37 -0.68 3.74 0 0 Z " fill="#13273A" transform="translate(235,117)"/>
<path d="M0 0 C0.66 0 1.32 0 2 0 C0.66959038 7.75488767 -0.92201472 15.73770734 -4 23 C-4.99 23.33 -5.98 23.66 -7 24 C-6.01 13.605 -6.01 13.605 -5 3 C-4.01 3 -3.02 3 -2 3 C-1.34 2.01 -0.68 1.02 0 0 Z " fill="#0E2134" transform="translate(438,298)"/>
<path d="M0 0 C0.99 0 1.98 0 3 0 C2.19215092 6.97301307 1.39881518 13.07456083 -2.11328125 19.2109375 C-3.53657815 22.08261141 -3.73566788 24.82801459 -4 28 C-4.33 27.34 -4.66 26.68 -5 26 C-5.66 26 -6.32 26 -7 26 C-5.23413932 17.1706966 -2.59122832 8.61435063 0 0 Z " fill="#142538" transform="translate(25,409)"/>
<path d="M0 0 C0.66 0.33 1.32 0.66 2 1 C-0.29059579 11.2474022 -3.59403351 21.07970924 -7 31 C-7.66 31 -8.32 31 -9 31 C-9 28.03 -9 25.06 -9 22 C-8.01 21.67 -7.02 21.34 -6 21 C-5.49150557 18.93212267 -5.00035249 16.85817131 -4.60546875 14.765625 C-3.500227 9.71716589 -1.69906452 4.87450065 0 0 Z " fill="#1F3546" transform="translate(258,49)"/>
<path d="M0 0 C0.66 0 1.32 0 2 0 C0.43868018 7.68333703 -1.78261275 15.08424246 -4.125 22.5625 C-4.49753906 23.76197266 -4.87007813 24.96144531 -5.25390625 26.19726562 C-6.16605926 29.13252725 -7.08149528 32.06672103 -8 35 C-8.66 35 -9.32 35 -10 35 C-8.67090497 27.48474181 -6.70446667 20.28233829 -4.4375 13 C-3.96280273 11.44732422 -3.96280273 11.44732422 -3.47851562 9.86328125 C-1.15055006 2.30110013 -1.15055006 2.30110013 0 0 Z " fill="#213447" transform="translate(269,13)"/>
<path d="M0 0 C0.66 0 1.32 0 2 0 C0.35377576 5.58801674 -2.14670601 10.62528176 -4.75 15.8125 C-5.16765625 16.66392578 -5.5853125 17.51535156 -6.015625 18.39257812 C-8.93596852 24.23771691 -12.25262304 29.6490377 -16 35 C-16.66 34.67 -17.32 34.34 -18 34 C-17.70343506 33.46745605 -17.40687012 32.93491211 -17.10131836 32.38623047 C-11.16128502 21.70175789 -5.33635276 11.00053607 0 0 Z " fill="#223244" transform="translate(488,126)"/>
<path d="M0 0 C0 0.66 0 1.32 0 2 C-4.1039823 2.79262433 -8.20821966 3.58392052 -12.3125 4.375 C-14.03436523 4.70757812 -14.03436523 4.70757812 -15.79101562 5.046875 C-22.85325468 6.40730632 -29.92083606 7.73050884 -37 9 C-37 8.34 -37 7.68 -37 7 C-29.20458334 4.53103363 -21.4971727 2.58777692 -13.4375 1.25 C-12.67646973 1.12262451 -11.91543945 0.99524902 -11.13134766 0.86401367 C-7.39046781 0.27100817 -3.78907723 -0.15006246 0 0 Z " fill="#223246" transform="translate(247,180)"/>
<path d="M0 0 C-2.59878676 3.00768677 -5.6156561 4.50805012 -9.125 6.3125 C-14.66790718 9.22981957 -19.88408696 12.3911001 -25 16 C-25.66 15.67 -26.32 15.34 -27 15 C-23.20783455 10.8717274 -19.27746426 8.10606836 -14.4375 5.3125 C-13.77814453 4.92255859 -13.11878906 4.53261719 -12.43945312 4.13085938 C-10.63545577 3.07021771 -8.82041045 2.03212461 -7 1 C-6.24847656 0.56042969 -5.49695313 0.12085938 -4.72265625 -0.33203125 C-3 -1 -3 -1 0 0 Z " fill="#1A2A3D" transform="translate(170,206)"/>
<path d="M0 0 C0.66 0.33 1.32 0.66 2 1 C0.85210257 8.09883934 -1.11450374 14.41658619 -4 21 C-4.66 21 -5.32 21 -6 21 C-6.33 21.66 -6.66 22.32 -7 23 C-7.33 21.02 -7.66 19.04 -8 17 C-7.01 16.34 -6.02 15.68 -5 15 C-3.9758672 11.89823654 -3.9758672 11.89823654 -3.3125 8.375 C-3.06113281 7.18648437 -2.80976562 5.99796875 -2.55078125 4.7734375 C-2.36902344 3.85820312 -2.18726563 2.94296875 -2 2 C-1.34 2 -0.68 2 0 2 C0 1.34 0 0.68 0 0 Z " fill="#132236" transform="translate(522,24)"/>
<path d="M0 0 C0.66 0 1.32 0 2 0 C0.36559954 9.9698428 -2.86435051 19.42196248 -6 29 C-6.66 29 -7.32 29 -8 29 C-7.66836011 23.95678653 -7.11199304 19.71886915 -4.8984375 15.10546875 C-2.82325396 10.24232123 -1.50021308 5.06417107 0 0 Z " fill="#243346" transform="translate(165,368)"/>
<path d="M0 0 C0.66 0 1.32 0 2 0 C0.36559954 9.9698428 -2.86435051 19.42196248 -6 29 C-6.66 28.67 -7.32 28.34 -8 28 C-5.73529777 18.50752471 -3.27787201 9.2059384 0 0 Z " fill="#203343" transform="translate(289,382)"/>
<path d="M0 0 C-1.35265563 3.64628908 -3.0092483 6.82567172 -5.0625 10.125 C-6.72679402 12.80251948 -7.99990801 14.99972402 -9 18 C-9.99 18 -10.98 18 -12 18 C-11.62236637 12.96488495 -9.90295939 9.94241863 -7.05859375 5.9296875 C-5.6793569 3.78233674 -5.6793569 3.78233674 -6 0 C-2.25 -1.125 -2.25 -1.125 0 0 Z " fill="#16283D" transform="translate(189,313)"/>
<path d="M0 0 C0.99 0.66 1.98 1.32 3 2 C2.08232715 5.15196802 1.13761064 8.29517191 0.1875 11.4375 C-0.20405273 12.78424805 -0.20405273 12.78424805 -0.60351562 14.15820312 C-0.99506836 15.43920898 -0.99506836 15.43920898 -1.39453125 16.74609375 C-1.63018799 17.53685303 -1.86584473 18.3276123 -2.10864258 19.14233398 C-2.40279053 19.75536377 -2.69693848 20.36839355 -3 21 C-3.99 21.33 -4.98 21.66 -6 22 C-6.33 22.66 -6.66 23.32 -7 24 C-6.31184495 18.61671112 -4.69258365 13.73143827 -2.9375 8.625 C-2.51500977 7.37783203 -2.51500977 7.37783203 -2.08398438 6.10546875 C-1.39342899 4.06891559 -0.69727821 2.03426119 0 0 Z " fill="#15283B" transform="translate(405,404)"/>
<path d="M0 0 C1.32 0.99 2.64 1.98 4 3 C3.39891424 8.65020618 1.92471317 13.66164461 0 19 C-1.65 18.67 -3.3 18.34 -5 18 C-4.52949219 17.31550781 -4.05898437 16.63101563 -3.57421875 15.92578125 C-1.78721407 12.60452441 -1.30194641 9.91482268 -0.8125 6.1875 C-0.65394531 5.02605469 -0.49539062 3.86460937 -0.33203125 2.66796875 C-0.22246094 1.78753906 -0.11289063 0.90710938 0 0 Z " fill="#14283C" transform="translate(224,150)"/>
<path d="M0 0 C0.66 0.66 1.32 1.32 2 2 C-0.61915387 4.00775098 -3.24624446 6.00484195 -5.875 8 C-6.62136719 8.57234375 -7.36773437 9.1446875 -8.13671875 9.734375 C-8.85214844 10.27578125 -9.56757813 10.8171875 -10.3046875 11.375 C-10.96452637 11.87773437 -11.62436523 12.38046875 -12.30419922 12.8984375 C-14 14 -14 14 -16 14 C-15.9375 11.6875 -15.9375 11.6875 -15 9 C-11.9375 7.5625 -11.9375 7.5625 -10.0546875 6.890625 C-6.28215342 5.25538209 -3.18858422 2.55914941 0 0 Z " fill="#132434" transform="translate(411,227)"/>
<path d="M0 0 C0.66 0.33 1.32 0.66 2 1 C-0.07559851 8.44773582 -3.19767594 14.8879512 -8 21 C-8.99 21.33 -9.98 21.66 -11 22 C-9.67552376 18.43848972 -8.08105893 15.3403127 -6.0625 12.125 C-3.64263797 8.17275591 -1.68696294 4.31112751 0 0 Z " fill="#1E334A" transform="translate(155,401)"/>
<path d="M0 0 C7.92 0 15.84 0 24 0 C23.01 1.485 23.01 1.485 22 3 C18.7421875 3.29296875 18.7421875 3.29296875 14.875 3.1875 C12.95300781 3.14689453 12.95300781 3.14689453 10.9921875 3.10546875 C10.00476563 3.07066406 9.01734375 3.03585937 8 3 C8 2.67 8 2.34 8 2 C5.36 1.67 2.72 1.34 0 1 C0 0.67 0 0.34 0 0 Z " fill="#071135" transform="translate(220,9)"/>
<path d="M0 0 C0.66 0.33 1.32 0.66 2 1 C0.29977612 8.12647031 -1.57919742 15.0834212 -4 22 C-4.66 22 -5.32 22 -6 22 C-5.52960495 14.16008251 -2.77062812 7.27928865 0 0 Z " fill="#203043" transform="translate(243,98)"/>
<path d="M0 0 C0 0.66 0 1.32 0 2 C-3.42978088 3.70353355 -6.86992063 5.38500046 -10.3125 7.0625 C-11.28896484 7.54783203 -12.26542969 8.03316406 -13.27148438 8.53320312 C-14.67817383 9.21479492 -14.67817383 9.21479492 -16.11328125 9.91015625 C-16.97735596 10.33433838 -17.84143066 10.75852051 -18.73168945 11.19555664 C-21 12 -21 12 -24 11 C-20.89779023 9.35045833 -17.79290789 7.7060119 -14.6875 6.0625 C-13.80642578 5.59392578 -12.92535156 5.12535156 -12.01757812 4.64257812 C-11.17001953 4.19462891 -10.32246094 3.74667969 -9.44921875 3.28515625 C-8.27879028 2.66459351 -8.27879028 2.66459351 -7.0847168 2.03149414 C-4.69981582 0.85147229 -2.68657639 0 0 0 Z " fill="#223244" transform="translate(180,181)"/>
<path d="M0 0 C0.66 0.66 1.32 1.32 2 2 C1.6904063 5.59430732 -0.09447767 7.61957992 -2.4375 10.25 C-3.05496094 10.95640625 -3.67242187 11.6628125 -4.30859375 12.390625 C-6 14 -6 14 -8 14 C-6.6744419 10.37723685 -5.05653045 7.36494652 -2.875 4.1875 C-2.33617188 3.39730469 -1.79734375 2.60710937 -1.2421875 1.79296875 C-0.83226563 1.20128906 -0.42234375 0.60960937 0 0 Z " fill="#172738" transform="translate(83,278)"/>
<path d="M0 0 C1.125 3.75 1.125 3.75 0 6 C0.66 6 1.32 6 2 6 C1.34 8.64 0.68 11.28 0 14 C-0.99 14 -1.98 14 -3 14 C-4.28571429 6.57142857 -4.28571429 6.57142857 -3 3 C-2.01 3 -1.02 3 0 3 C0 2.01 0 1.02 0 0 Z " fill="#14273A" transform="translate(169,351)"/>
<path d="M0 0 C0 4.03021757 -1.43111096 4.82319361 -4.1875 7.6875 C-8.10831637 11.89897626 -11.14048741 16.01891355 -14 21 C-14.66 20.34 -15.32 19.68 -16 19 C-11.18499038 12.03360311 -6.21365443 5.76746116 0 0 Z " fill="#213041" transform="translate(153,31)"/>
<path d="M0 0 C-4.44381694 4.58716587 -9.20228499 8.78762713 -14 13 C-14 8.62295666 -11.71083836 6.29507076 -9 3 C-6.00139434 0.09510077 -4.14414166 -0.34534514 0 0 Z " fill="#16273A" transform="translate(165,25)"/>
<path d="M0 0 C1.28497537 3.85492611 0.4052209 5.40346836 -0.9375 9.1875 C-1.31777344 10.27417969 -1.69804688 11.36085937 -2.08984375 12.48046875 C-2.39019531 13.31191406 -2.69054687 14.14335937 -3 15 C-3.33 14.34 -3.66 13.68 -4 13 C-4.66 12.67 -5.32 12.34 -6 12 C-5.57630928 10.3713449 -5.1355377 8.74712622 -4.6875 7.125 C-4.44386719 6.22007812 -4.20023437 5.31515625 -3.94921875 4.3828125 C-3 2 -3 2 0 0 Z " fill="#17273A" transform="translate(80,235)"/>
<path d="M0 0 C0 1.32 0 2.64 0 4 C-0.763125 4.268125 -1.52625 4.53625 -2.3125 4.8125 C-4.87380884 5.94424112 -6.19692938 6.91223401 -8 9 C-8.99 8.67 -9.98 8.34 -11 8 C-9.73861805 6.65772182 -8.46555441 5.32641323 -7.1875 4 C-6.47980469 3.2575 -5.77210938 2.515 -5.04296875 1.75 C-3 0 -3 0 0 0 Z M-12 9 C-12 9.99 -12 10.98 -12 12 C-12.99 12.66 -13.98 13.32 -15 14 C-15 13.01 -15 12.02 -15 11 C-14.01 10.34 -13.02 9.68 -12 9 Z " fill="#0F1F30" transform="translate(444,222)"/>
<path d="M0 0 C-1 3 -1 3 -2.64233398 4.05908203 C-3.33657471 4.37216309 -4.03081543 4.68524414 -4.74609375 5.0078125 C-5.50083984 5.35457031 -6.25558594 5.70132812 -7.03320312 6.05859375 C-8.22333008 6.58646484 -8.22333008 6.58646484 -9.4375 7.125 C-10.22705078 7.48464844 -11.01660156 7.84429687 -11.83007812 8.21484375 C-13.29396541 8.88126814 -14.75985056 9.54333257 -16.22827148 10.19970703 C-17.4978756 10.7731895 -18.7539577 11.37697885 -20 12 C-18.65191961 8.74724543 -17.5369099 7.39466492 -14.375 5.859375 C-13.31539062 5.33730469 -13.31539062 5.33730469 -12.234375 4.8046875 C-11.49703125 4.45664062 -10.7596875 4.10859375 -10 3.75 C-9.26265625 3.38648438 -8.5253125 3.02296875 -7.765625 2.6484375 C-2.30944549 0 -2.30944549 0 0 0 Z " fill="#243547" transform="translate(230,282)"/>
<path d="M0 0 C0.33 0.66 0.66 1.32 1 2 C0.09232898 3.44319692 -0.82656106 4.87934106 -1.75 6.3125 C-2.26046875 7.11300781 -2.7709375 7.91351563 -3.296875 8.73828125 C-5.00277761 11.00368861 -6.65808145 12.42684167 -9 14 C-9 9.23130534 -7.93355173 7.66693966 -5 4 C-2.8125 3.3125 -2.8125 3.3125 -1 3 C-0.67 2.01 -0.34 1.02 0 0 Z " fill="#12273A" transform="translate(362,137)"/>
<path d="M0 0 C1.27649014 3.82947042 1.03769039 7.15125282 0 11 C-2.0625 13.5 -2.0625 13.5 -4 15 C-3.67 13.35 -3.34 11.7 -3 10 C-3.66 9.67 -4.32 9.34 -5 9 C-4.01 6.69 -3.02 4.38 -2 2 C-1.34 2 -0.68 2 0 2 C0 1.34 0 0.68 0 0 Z " fill="#14233C" transform="translate(38,374)"/>
<path d="M0 0 C0.66 0 1.32 0 2 0 C0.64746536 6.45054982 -1.03060233 12.71105679 -3 19 C-3.66 18.67 -4.32 18.34 -5 18 C-1.92482916 5.33029613 -1.92482916 5.33029613 0 0 Z " fill="#213344" transform="translate(276,425)"/>
<path d="M0 0 C1.37432457 3.81756824 0.67975039 7.07255329 0 11 C-1.65 11 -3.3 11 -5 11 C-4.74445946 9.53890937 -4.46999628 8.08111904 -4.1875 6.625 C-4.03667969 5.81289063 -3.88585937 5.00078125 -3.73046875 4.1640625 C-3 2 -3 2 0 0 Z " fill="#0F2137" transform="translate(305,336)"/>
<path d="M0 0 C2.64701022 1.32350511 3.04357118 2.20428498 4 5 C3.625 8.75 3.625 8.75 3 12 C2.01 12.33 1.02 12.66 0 13 C-0.33 13.66 -0.66 14.32 -1 15 C-0.67 10.05 -0.34 5.1 0 0 Z " fill="#102238" transform="translate(445,264)"/>
<path d="M0 0 C0.66 0 1.32 0 2 0 C1.62669176 2.72574271 1.20805399 3.80822085 -0.84765625 5.703125 C-1.94400391 6.46882813 -1.94400391 6.46882813 -3.0625 7.25 C-3.79597656 7.77078125 -4.52945313 8.2915625 -5.28515625 8.828125 C-5.85105469 9.21484375 -6.41695312 9.6015625 -7 10 C-7.625 8.125 -7.625 8.125 -8 6 C-6 4 -6 4 -4 3.5625 C-1.61359262 3.12541292 -1.61359262 3.12541292 0 0 Z " fill="#152839" transform="translate(201,297)"/>
<path d="M0 0 C0.33 0 0.66 0 1 0 C0.88590407 1.45922693 0.75834456 2.91740598 0.625 4.375 C0.55539062 5.18710938 0.48578125 5.99921875 0.4140625 6.8359375 C0 9 0 9 -2 11 C-2 10.34 -2 9.68 -2 9 C-2.99 9.33 -3.98 9.66 -5 10 C-5 4.68559972 -3.52524678 3.78319167 0 0 Z " fill="#16232E" transform="translate(473,185)"/>
<path d="M0 0 C0.99 0 1.98 0 3 0 C2.91253716 1.43861294 2.80434652 2.87597508 2.6875 4.3125 C2.62949219 5.11300781 2.57148438 5.91351563 2.51171875 6.73828125 C1.91793306 9.36272334 1.04219706 10.30820672 -1 12 C-2.36884358 7.48281619 -1.47075246 4.41225737 0 0 Z " fill="#0C1E32" transform="translate(25,409)"/>
<path d="M0 0 C-0.99 0.33 -1.98 0.66 -3 1 C-3 1.66 -3 2.32 -3 3 C-4.32 3 -5.64 3 -7 3 C-7.33 4.32 -7.66 5.64 -8 7 C-9.65 7 -11.3 7 -13 7 C-11.78836152 3.36508457 -10.89228938 3.04753785 -7.625 1.25 C-6.83351562 0.80140625 -6.04203125 0.3528125 -5.2265625 -0.109375 C-3 -1 -3 -1 0 0 Z " fill="#1F3143" transform="translate(175,19)"/>
<path d="M0 0 C0.66 0.66 1.32 1.32 2 2 C4.65537372 2.56520003 7.29144713 2.73788198 10 3 C8.9375 4.5 8.9375 4.5 7 6 C3.3125 6.1875 3.3125 6.1875 0 6 C-0.38218767 4.34385343 -0.71395102 2.67542976 -1 1 C-0.67 0.67 -0.34 0.34 0 0 Z " fill="#0F202B" transform="translate(271,443)"/>
<path d="M0 0 C0.66 0.33 1.32 0.66 2 1 C0.46162154 4.19624262 -1.28866532 7.21605574 -3.125 10.25 C-3.66382812 11.14203125 -4.20265625 12.0340625 -4.7578125 12.953125 C-5.37269531 13.96632813 -5.37269531 13.96632813 -6 15 C-6.66 14.34 -7.32 13.68 -8 13 C-5.36 8.71 -2.72 4.42 0 0 Z " fill="#213647" transform="translate(74,291)"/>
<path d="M0 0 C0.99 0.33 1.98 0.66 3 1 C2.67 3.64 2.34 6.28 2 9 C0.35 9.33 -1.3 9.66 -3 10 C-2.01 6.7 -1.02 3.4 0 0 Z " fill="#0F243C" transform="translate(403,12)"/>
<path d="M0 0 C0.66 0.33 1.32 0.66 2 1 C1.01 4.63 0.02 8.26 -1 12 C-1.99 12 -2.98 12 -4 12 C-3.71640113 10.5608866 -3.42278601 9.12374482 -3.125 7.6875 C-2.96257812 6.88699219 -2.80015625 6.08648437 -2.6328125 5.26171875 C-2 3 -2 3 0 0 Z " fill="#1A2E3F" transform="translate(452,253)"/>
<path d="M0 0 C0.33 0.66 0.66 1.32 1 2 C0.22265625 4.1640625 0.22265625 4.1640625 -0.9375 6.625 C-1.31777344 7.44226563 -1.69804688 8.25953125 -2.08984375 9.1015625 C-2.39019531 9.72804688 -2.69054688 10.35453125 -3 11 C-3.33 10.34 -3.66 9.68 -4 9 C-4.66 8.67 -5.32 8.34 -6 8 C-4.6875 4.5625 -4.6875 4.5625 -3 1 C-2.01 0.67 -1.02 0.34 0 0 Z " fill="#152535" transform="translate(54,332)"/>
<path d="M0 0 C0.99 0.99 1.98 1.98 3 3 C-0.625 8.875 -0.625 8.875 -4 10 C-4 8.35 -4 6.7 -4 5 C-3.01 5 -2.02 5 -1 5 C-0.67 3.35 -0.34 1.7 0 0 Z " fill="#1D252F" transform="translate(71,265)"/>
<path d="M0 0 C0 0.99 0 1.98 0 3 C-9.41002278 7.59225513 -9.41002278 7.59225513 -14 7 C-11.51169497 4.51169497 -9.1322066 3.69174309 -5.875 2.375 C-4.77929688 1.92898438 -3.68359375 1.48296875 -2.5546875 1.0234375 C-1.71164062 0.68570312 -0.86859375 0.34796875 0 0 Z " fill="#1F3345" transform="translate(363,257)"/>
<path d="M0 0 C0.66 0 1.32 0 2 0 C0.9318153 5.11365014 -0.23107476 10.07227969 -2 15 C-2.66 14.67 -3.32 14.34 -4 14 C-3.52372025 12.04096255 -3.04388577 10.08278903 -2.5625 8.125 C-2.29566406 7.03445312 -2.02882813 5.94390625 -1.75390625 4.8203125 C-1 2 -1 2 0 0 Z " fill="#233447" transform="translate(74,248)"/>
<path d="M0 0 C0 0.66 0 1.32 0 2 C-5.24385089 3.7479503 -9.47322267 4.19392201 -15 4 C-15 3.34 -15 2.68 -15 2 C-13.06302033 1.66365624 -11.12539514 1.33102835 -9.1875 1 C-7.56908203 0.7215625 -7.56908203 0.7215625 -5.91796875 0.4375 C-3 0 -3 0 0 0 Z " fill="#1D3043" transform="translate(310,176)"/>
<path d="M0 0 C0 0.66 0 1.32 0 2 C-2.12392506 2.6700834 -4.24917524 3.33596797 -6.375 4 C-7.55835938 4.37125 -8.74171875 4.7425 -9.9609375 5.125 C-13 6 -13 6 -15 6 C-15 5.34 -15 4.68 -15 4 C-13.06441401 3.32779649 -11.12645628 2.66241923 -9.1875 2 C-8.10855469 1.62875 -7.02960938 1.2575 -5.91796875 0.875 C-3 0 -3 0 0 0 Z " fill="#213649" transform="translate(209,171)"/>
<path d="M0 0 C0.66 0 1.32 0 2 0 C1.40075776 4.19469571 0.42500059 8.00999834 -1 12 C-1.99 11.67 -2.98 11.34 -4 11 C-3.5247412 9.35303396 -3.04468109 7.70745272 -2.5625 6.0625 C-2.29566406 5.14597656 -2.02882813 4.22945313 -1.75390625 3.28515625 C-1 1 -1 1 0 0 Z " fill="#0D2031" transform="translate(125,81)"/>
<path d="M0 0 C1.18414294 3.55242882 0.69535532 4.69830562 -0.4375 8.1875 C-0.72496094 9.08855469 -1.01242187 9.98960938 -1.30859375 10.91796875 C-1.53675781 11.60503906 -1.76492188 12.29210938 -2 13 C-2.66 12.67 -3.32 12.34 -4 12 C-4.94934202 9.07286212 -5.23176473 7.57168632 -4.0625 4.6875 C-3.711875 4.130625 -3.36125 3.57375 -3 3 C-2.34 3 -1.68 3 -1 3 C-0.67 2.01 -0.34 1.02 0 0 Z " fill="#1D3145" transform="translate(515,51)"/>
<path d="M0 0 C0.66 0 1.32 0 2 0 C1.01 3.63 0.02 7.26 -1 11 C-1.66 11 -2.32 11 -3 11 C-4.25541557 7.23375329 -3.37061958 5.62811066 -2 2 C-1.34 2 -0.68 2 0 2 C0 1.34 0 0.68 0 0 Z " fill="#1C2D41" transform="translate(410,391)"/>
<path d="M0 0 C0.33 0.99 0.66 1.98 1 3 C1.66 3.33 2.32 3.66 3 4 C1.84826645 6.46800047 0.95216435 8.04783565 -1 10 C-1.66 10.99 -2.32 11.98 -3 13 C-2.88490339 11.58249437 -2.75746342 10.16598831 -2.625 8.75 C-2.55539062 7.96109375 -2.48578125 7.1721875 -2.4140625 6.359375 C-1.98492887 3.914123 -1.21399362 2.15163097 0 0 Z " fill="#102334" transform="translate(458,230)"/>
<path d="M0 0 C0 0.66 0 1.32 0 2 C-1.76858691 2.67260351 -3.53996016 3.33788395 -5.3125 4 C-6.29863281 4.37125 -7.28476563 4.7425 -8.30078125 5.125 C-11 6 -11 6 -14 6 C-14 5.34 -14 4.68 -14 4 C-12.23141309 3.32739649 -10.46003984 2.66211605 -8.6875 2 C-7.70136719 1.62875 -6.71523437 1.2575 -5.69921875 0.875 C-3 0 -3 0 0 0 Z " fill="#213146" transform="translate(209,188)"/>
<path d="M0 0 C0.99 0.33 1.98 0.66 3 1 C2.52309796 2.62566606 2.04340334 4.25051311 1.5625 5.875 C1.29566406 6.77992187 1.02882813 7.68484375 0.75390625 8.6171875 C0 11 0 11 -1 13 C-1.66 13 -2.32 13 -3 13 C-2.45144652 8.428721 -1.58255197 4.32564205 0 0 Z " fill="#1E2F41" transform="translate(496,103)"/>
<path d="M0 0 C0.33 0.66 0.66 1.32 1 2 C-3.95 2 -8.9 2 -14 2 C-14 1.34 -14 0.68 -14 0 C-8.97278473 -1.13112344 -5.01462597 -0.93493027 0 0 Z " fill="#09182A" transform="translate(271,10)"/>
<path d="M0 0 C-3.96 2.64 -7.92 5.28 -12 8 C-12.33 7.34 -12.66 6.68 -13 6 C-9.41603189 2.00249711 -5.50726745 -1.83575582 0 0 Z " fill="#1C2E40" transform="translate(146,201)"/>
<path d="M0 0 C0.66 0.33 1.32 0.66 2 1 C0.68 4.96 -0.64 8.92 -2 13 C-2.66 13 -3.32 13 -4 13 C-3.40895235 8.15340923 -2.02055843 4.39251833 0 0 Z " fill="#1F3140" transform="translate(463,220)"/>
<path d="M0 0 C0.99 0 1.98 0 3 0 C3 2.97 3 5.94 3 9 C2.34 9 1.68 9 1 9 C0.34 9.99 -0.32 10.98 -1 12 C-1.08159574 7.83861737 -0.98248524 4.0527516 0 0 Z " fill="#112339" transform="translate(504,75)"/>
<path d="M0 0 C0.66 0 1.32 0 2 0 C1.52140759 1.60433809 1.04210442 3.20846416 0.5625 4.8125 C0.29566406 5.70582031 0.02882812 6.59914063 -0.24609375 7.51953125 C-0.80387873 9.35473055 -1.39344575 11.18033726 -2 13 C-2.66 13 -3.32 13 -4 13 C-3.71517632 11.58194169 -3.42181856 10.16559621 -3.125 8.75 C-2.96257812 7.96109375 -2.80015625 7.1721875 -2.6328125 6.359375 C-2.00849925 4.03168856 -1.15161458 2.10968048 0 0 Z " fill="#243846" transform="translate(177,331)"/>
<path d="M0 0 C0.66 0.33 1.32 0.66 2 1 C-6.261959 6.55580866 -6.261959 6.55580866 -11 7 C-11 6.34 -11 5.68 -11 5 C-9.21289414 4.13633178 -7.4201535 3.28431406 -5.625 2.4375 C-4.62726563 1.96183594 -3.62953125 1.48617187 -2.6015625 0.99609375 C-1.74304688 0.66738281 -0.88453125 0.33867187 0 0 Z " fill="#223242" transform="translate(192,193)"/>
<path d="M0 0 C0.66 0 1.32 0 2 0 C2 0.99 2 1.98 2 3 C2.66 3 3.32 3 4 3 C3.67 4.65 3.34 6.3 3 8 C2.01 8 1.02 8 0 8 C-0.33 8.66 -0.66 9.32 -1 10 C-0.67 6.7 -0.34 3.4 0 0 Z " fill="#132538" transform="translate(247,77)"/>
<path d="M0 0 C1.46726798 3.81489674 0.43336419 6.29011622 -1 10 C-1.66 10 -2.32 10 -3 10 C-3.36923077 3.47692308 -3.36923077 3.47692308 -1.5 1.0625 C-1.005 0.711875 -0.51 0.36125 0 0 Z " fill="#1A2F41" transform="translate(398,431)"/>
<path d="M0 0 C0.66 0.33 1.32 0.66 2 1 C-0.51407619 5.28324091 -2.12314139 7.64531705 -7 9 C-5.44499019 5.18315774 -2.96404505 2.80804268 0 0 Z " fill="#0B1635" transform="translate(111,246)"/>
<path d="M0 0 C0.99 0.33 1.98 0.66 3 1 C2.8125 3.875 2.8125 3.875 2 7 C-0.5625 8.375 -0.5625 8.375 -3 9 C-2.67 7.35 -2.34 5.7 -2 4 C-1.34 4 -0.68 4 0 4 C0 2.68 0 1.36 0 0 Z " fill="#132438" transform="translate(463,166)"/>
<path d="M0 0 C0.33 0 0.66 0 1 0 C1 2.64 1 5.28 1 8 C0.01 8.33 -0.98 8.66 -2 9 C-2.33 7.02 -2.66 5.04 -3 3 C-2.01 2.67 -1.02 2.34 0 2 C0 1.34 0 0.68 0 0 Z " fill="#0F2137" transform="translate(374,104)"/>
<path d="M0 0 C0.66 0 1.32 0 2 0 C0.87204037 4.10899581 -0.33510818 8.07561214 -2 12 C-2.66 12 -3.32 12 -4 12 C-3.52309796 10.37433394 -3.04340334 8.74948689 -2.5625 7.125 C-2.29566406 6.22007812 -2.02882812 5.31515625 -1.75390625 4.3828125 C-1 2 -1 2 0 0 Z " fill="#1D3444" transform="translate(46,346)"/>
<path d="M0 0 C0.33 0.66 0.66 1.32 1 2 C-3.0527516 2.98248524 -6.83861737 3.08159574 -11 3 C-11 2.34 -11 1.68 -11 1 C-7.26562152 0.12132271 -3.83225427 -0.08912219 0 0 Z " fill="#233648" transform="translate(307,275)"/>
<path d="M0 0 C4.62 0 9.24 0 14 0 C12.68 0.33 11.36 0.66 10 1 C9.67 1.99 9.34 2.98 9 4 C6.03 3.01 3.06 2.02 0 1 C0 0.67 0 0.34 0 0 Z " fill="#0D2037" transform="translate(299,273)"/>
<path d="M0 0 C0.66 0.33 1.32 0.66 2 1 C0.71284028 2.64936048 -0.57987019 4.29439047 -1.875 5.9375 C-2.95394531 7.31228516 -2.95394531 7.31228516 -4.0546875 8.71484375 C-6 11 -6 11 -8 12 C-6.49087042 7.01987239 -3.44338151 3.75740058 0 0 Z " fill="#22313F" transform="translate(468,191)"/>
<path d="M0 0 C0.66 0.33 1.32 0.66 2 1 C1.25 7.75 1.25 7.75 -1 10 C-1.66 9.01 -2.32 8.02 -3 7 C-1.625 3.3125 -1.625 3.3125 0 0 Z " fill="#162A3C" transform="translate(510,62)"/>
<path d="M0 0 C0.66 0 1.32 0 2 0 C2 0.66 2 1.32 2 2 C2.66 2.33 3.32 2.66 4 3 C3.1875 4.9375 3.1875 4.9375 2 7 C1.01 7.33 0.02 7.66 -1 8 C-1.04241723 5.66705225 -1.04092937 3.33297433 -1 1 C-0.67 0.67 -0.34 0.34 0 0 Z " fill="#0F2537" transform="translate(155,395)"/>
<path d="M0 0 C0.66 0.33 1.32 0.66 2 1 C1.25 6.75 1.25 6.75 -1 9 C-1.66 8.34 -2.32 7.68 -3 7 C-2.01 4.69 -1.02 2.38 0 0 Z " fill="#132233" transform="translate(41,360)"/>
<path d="M0 0 C0.66 0.33 1.32 0.66 2 1 C1.64950425 4.24208567 1.43778819 5.61527704 -1.0625 7.8125 C-1.701875 8.204375 -2.34125 8.59625 -3 9 C-2.5020163 5.26512223 -2.12508244 3.18762365 0 0 Z " fill="#192C40" transform="translate(301,346)"/>
<path d="M0 0 C0 0.66 0 1.32 0 2 C-3.63 2.66 -7.26 3.32 -11 4 C-11.33 3.34 -11.66 2.68 -12 2 C-7.8803623 0.70756464 -4.33168317 -0.26252625 0 0 Z " fill="#24374C" transform="translate(222,168)"/>
<path d="M0 0 C0.66 0 1.32 0 2 0 C1.69078116 1.45903258 1.37751201 2.91720722 1.0625 4.375 C0.88847656 5.18710938 0.71445313 5.99921875 0.53515625 6.8359375 C0 9 0 9 -1 11 C-1.66 11 -2.32 11 -3 11 C-2.69078116 9.54096742 -2.37751201 8.08279278 -2.0625 6.625 C-1.88847656 5.81289062 -1.71445313 5.00078125 -1.53515625 4.1640625 C-1 2 -1 2 0 0 Z " fill="#1F3246" transform="translate(247,85)"/>
<path d="M0 0 C0.66 0 1.32 0 2 0 C1.71788123 1.6266848 1.42397625 3.25132896 1.125 4.875 C0.96257812 5.77992187 0.80015625 6.68484375 0.6328125 7.6171875 C0 10 0 10 -2 12 C-3.15957207 8.52128379 -2.77456651 7.65780355 -1.5625 4.3125 C-1.13130859 3.10013672 -1.13130859 3.10013672 -0.69140625 1.86328125 C-0.46324219 1.24839844 -0.23507812 0.63351563 0 0 Z " fill="#223343" transform="translate(397,23)"/>
<path d="M0 0 C1.32 0.33 2.64 0.66 4 1 C2.6875 3.9375 2.6875 3.9375 1 7 C0.01 7.33 -0.98 7.66 -2 8 C-1.34 5.36 -0.68 2.72 0 0 Z " fill="#1B2A3C" transform="translate(316,293)"/>
<path d="M0 0 C0.33 0.66 0.66 1.32 1 2 C2.65 1.67 4.3 1.34 6 1 C5.67 2.32 5.34 3.64 5 5 C4.484375 4.814375 3.96875 4.62875 3.4375 4.4375 C0.14091261 3.84580483 -2.72245735 4.432733 -6 5 C-3 3 -3 3 0 3 C0 2.01 0 1.02 0 0 Z " fill="#10263D" transform="translate(350,280)"/>
<path d="M0 0 C-0.33 0.99 -0.66 1.98 -1 3 C-3.28515625 3.94921875 -3.28515625 3.94921875 -6.0625 4.6875 C-7.44115234 5.06455078 -7.44115234 5.06455078 -8.84765625 5.44921875 C-9.55792969 5.63097656 -10.26820313 5.81273437 -11 6 C-11 5.34 -11 4.68 -11 4 C-9.5437455 3.32880451 -8.08492133 2.66318193 -6.625 2 C-5.81289063 1.62875 -5.00078125 1.2575 -4.1640625 0.875 C-2 0 -2 0 0 0 Z " fill="#213445" transform="translate(326,170)"/>
<path d="M0 0 C0.99 0.33 1.98 0.66 3 1 C1.49776416 5.20626034 -1.28550034 6.73900021 -5 9 C-5.33 8.34 -5.66 7.68 -6 7 C-5.195625 6.401875 -4.39125 5.80375 -3.5625 5.1875 C-0.77672016 3.19052724 -0.77672016 3.19052724 0 0 Z " fill="#0F223D" transform="translate(342,158)"/>
<path d="M0 0 C0.33 0.66 0.66 1.32 1 2 C0.21654285 3.17219543 -0.57702836 4.33763668 -1.375 5.5 C-1.81585938 6.1496875 -2.25671875 6.799375 -2.7109375 7.46875 C-3.13632813 7.9740625 -3.56171875 8.479375 -4 9 C-4.66 9 -5.32 9 -6 9 C-4.68775452 5.06326356 -3.08089673 2.77280706 0 0 Z " fill="#283747" transform="translate(150,414)"/>
<path d="M0 0 C0.33 0.66 0.66 1.32 1 2 C1.66 2.33 2.32 2.66 3 3 C2.34 3.66 1.68 4.32 1 5 C0.67 5.66 0.34 6.32 0 7 C-2.97 6.505 -2.97 6.505 -6 6 C-2.25 3 -2.25 3 0 3 C0 2.01 0 1.02 0 0 Z " fill="#112439" transform="translate(369,272)"/>
<path d="M0 0 C2.97 0 5.94 0 9 0 C7.02 0.99 7.02 0.99 5 2 C3.64886795 2.97581759 2.31053056 3.97029741 1 5 C1 4.34 1 3.68 1 3 C0.34 3 -0.32 3 -1 3 C-0.67 2.01 -0.34 1.02 0 0 Z " fill="#11243D" transform="translate(208,168)"/>
<path d="M0 0 C1.76462683 3.08809695 2 4.23312136 2 8 C1.34 8 0.68 8 0 8 C-0.33 8.66 -0.66 9.32 -1 10 C-2.46726798 6.18510326 -1.43336419 3.70988378 0 0 Z " fill="#0E233C" transform="translate(397,30)"/>
<path d="M0 0 C0.66 0 1.32 0 2 0 C1.34 3.3 0.68 6.6 0 10 C-0.66 9.67 -1.32 9.34 -2 9 C-1.34 6.03 -0.68 3.06 0 0 Z " fill="#203240" transform="translate(82,221)"/>
<path d="M0 0 C0.66 0 1.32 0 2 0 C1.67 2.64 1.34 5.28 1 8 C0.01 8 -0.98 8 -2 8 C-1.34 5.36 -0.68 2.72 0 0 Z " fill="#192B3C" transform="translate(97,172)"/>
<path d="M0 0 C0.99 0 1.98 0 3 0 C2.67 1.65 2.34 3.3 2 5 C1.34 5 0.68 5 0 5 C-0.33 6.65 -0.66 8.3 -1 10 C-2.46726798 6.18510326 -1.43336419 3.70988378 0 0 Z " fill="#152538" transform="translate(525,12)"/>
<path d="M0 0 C0.99 0.66 1.98 1.32 3 2 C2.1875 4.4375 2.1875 4.4375 1 7 C0.01 7.33 -0.98 7.66 -2 8 C-1.34 5.36 -0.68 2.72 0 0 Z " fill="#112232" transform="translate(405,404)"/>
<path d="M0 0 C0 0.66 0 1.32 0 2 C-4.455 2.495 -4.455 2.495 -9 3 C-9 2.34 -9 1.68 -9 1 C-5.92677456 0.08941469 -3.19902639 -0.08886184 0 0 Z " fill="#263749" transform="translate(318,273)"/>
<path d="M0 0 C0.66 0.33 1.32 0.66 2 1 C1.125 6.75 1.125 6.75 0 9 C-0.66 9 -1.32 9 -2 9 C-1.34 6.03 -0.68 3.06 0 0 Z " fill="#1C3345" transform="translate(392,39)"/>
<path d="M0 0 C0.66 0.33 1.32 0.66 2 1 C0.87926138 1.83905565 -0.24674547 2.67107831 -1.375 3.5 C-2.00148437 3.9640625 -2.62796875 4.428125 -3.2734375 4.90625 C-5 6 -5 6 -7 6 C-6 3 -6 3 -3.0625 1.25 C-2.051875 0.8375 -1.04125 0.425 0 0 Z " fill="#1F3140" transform="translate(178,199)"/>
<path d="M0 0 C1.65 0 3.3 0 5 0 C4.01 0.495 4.01 0.495 3 1 C3 1.99 3 2.98 3 4 C1.68 4.33 0.36 4.66 -1 5 C-0.67 3.35 -0.34 1.7 0 0 Z " fill="#142436" transform="translate(191,174)"/>
<path d="M0 0 C0.66 0 1.32 0 2 0 C2 1.65 2 3.3 2 5 C1.34 5 0.68 5 0 5 C-0.33 5.66 -0.66 6.32 -1 7 C-1.66 7 -2.32 7 -3 7 C-1.125 2.25 -1.125 2.25 0 0 Z " fill="#1E2F47" transform="translate(362,133)"/>
<path d="M0 0 C1.98 0.495 1.98 0.495 4 1 C2.88820837 4.33537489 1.52588702 5.63707344 -1 8 C-0.67 5.36 -0.34 2.72 0 0 Z " fill="#12253B" transform="translate(242,95)"/>
</svg>
